<?xml version="1.0" encoding="utf-8"?>
<!-- Generator: Adobe Illustrator 18.1.0, SVG Export Plug-In . SVG Version: 6.00 Build 0)  -->
<!DOCTYPE svg PUBLIC "-//W3C//DTD SVG 1.1//EN" "http://www.w3.org/Graphics/SVG/1.1/DTD/svg11.dtd">
<svg version="1.1" id="Layer_1" xmlns="http://www.w3.org/2000/svg" xmlns:xlink="http://www.w3.org/1999/xlink" x="0px" y="0px"
	 viewBox="0 0 32 32" enable-background="new 0 0 32 32" xml:space="preserve">
<g id="Ppt">
</g>
<g id="Small_Folder">
</g>
<g>
	<g>
		<g>
			<path fill="#DF3324" d="M7,31.5c-1.93,0-3.5-1.57-3.5-3.5V4c0-1.93,1.57-3.5,3.5-3.5h15.207L28.5,6.793V28
				c0,1.93-1.57,3.5-3.5,3.5H7z"/>
			<path fill="#FFFFFF" d="M22,1l6,6v21c0,1.657-1.343,3-3,3H7c-1.657,0-3-1.343-3-3V4c0-1.657,1.343-3,3-3H22 M22.414,0H22H7
				C4.794,0,3,1.794,3,4v24c0,2.206,1.794,4,4,4h18c2.206,0,4-1.794,4-4V7V6.586l-0.293-0.293l-6-6L22.414,0L22.414,0z"/>
		</g>
	</g>
	<polygon fill-rule="evenodd" clip-rule="evenodd" fill="#BA150D" points="22,1 22,7 28,7 	"/>
	<path fill="#BA150D" d="M23,10h-6c0-0.552-0.448-1-1-1s-1,0.448-1,1H9c-0.552,0-1,0.448-1,1c0,0.552,0.448,1,1,1v9h6.417
		l-2.846,4.743c-0.143,0.236-0.065,0.544,0.172,0.686c0.235,0.144,0.543,0.065,0.686-0.172L16,21.972l2.571,4.285
		C18.665,26.413,18.831,26.5,19,26.5c0.088,0,0.177-0.022,0.257-0.071c0.237-0.142,0.314-0.449,0.172-0.686L16.583,21H23v-9
		c0.552,0,1-0.448,1-1C24,10.448,23.552,10,23,10z M22,20H10v-8h12V20z"/>
	<path fill="#FFFFFF" d="M23,9h-6c0-0.552-0.448-1-1-1s-1,0.448-1,1H9c-0.552,0-1,0.448-1,1c0,0.552,0.448,1,1,1v9h6.417
		l-2.846,4.743c-0.143,0.236-0.065,0.544,0.172,0.686c0.235,0.144,0.543,0.065,0.686-0.172L16,20.972l2.571,4.285
		C18.665,25.413,18.831,25.5,19,25.5c0.088,0,0.177-0.022,0.257-0.071c0.237-0.142,0.314-0.449,0.172-0.686L16.583,20H23v-9
		c0.552,0,1-0.448,1-1C24,9.448,23.552,9,23,9z M22,19H10v-8h12V19z"/>
</g>
<g id="fave_icon_-_selected">
</g>
</svg>
