<?xml version="1.0" encoding="utf-8"?>
<!-- Generator: Adobe Illustrator 18.1.0, SVG Export Plug-In . SVG Version: 6.00 Build 0)  -->
<!DOCTYPE svg PUBLIC "-//W3C//DTD SVG 1.1//EN" "http://www.w3.org/Graphics/SVG/1.1/DTD/svg11.dtd">
<svg version="1.1" id="Layer_1" xmlns="http://www.w3.org/2000/svg" xmlns:xlink="http://www.w3.org/1999/xlink" x="0px" y="0px"
	 viewBox="0 0 32 32" enable-background="new 0 0 32 32" xml:space="preserve">
<g id="Ppt">
</g>
<g id="Small_Folder">
</g>
<g>
	<g>
		<g>
			<path fill="#DF3324" d="M7,31.5c-1.93,0-3.5-1.57-3.5-3.5V4c0-1.93,1.57-3.5,3.5-3.5h15.207L28.5,6.793V28
				c0,1.93-1.57,3.5-3.5,3.5H7z"/>
			<path fill="#FFFFFF" d="M22,1l6,6v21c0,1.657-1.343,3-3,3H7c-1.657,0-3-1.343-3-3V4c0-1.657,1.343-3,3-3H22 M22.414,0H22H7
				C4.794,0,3,1.794,3,4v24c0,2.206,1.794,4,4,4h18c2.206,0,4-1.794,4-4V7V6.586l-0.293-0.293l-6-6L22.414,0L22.414,0z"/>
		</g>
	</g>
	<polygon fill-rule="evenodd" clip-rule="evenodd" fill="#BA150D" points="22,1 22,7 28,7 	"/>
	<path fill="#BA150D" d="M22.5,23h-13C8.673,23,8,22.327,8,21.5v-9C8,11.673,8.673,11,9.5,11h13c0.827,0,1.5,0.673,1.5,1.5v9
		C24,22.327,23.327,23,22.5,23z M9.5,12C9.224,12,9,12.225,9,12.5v9C9,21.775,9.224,22,9.5,22h13c0.276,0,0.5-0.225,0.5-0.5v-9
		c0-0.275-0.224-0.5-0.5-0.5H9.5z"/>
	<polygon fill="#BA150D" points="14,14 14,20 19,17 	"/>
	<path fill="#FFFFFF" d="M22.5,22h-13C8.673,22,8,21.327,8,20.5v-9C8,10.673,8.673,10,9.5,10h13c0.827,0,1.5,0.673,1.5,1.5v9
		C24,21.327,23.327,22,22.5,22z M9.5,11C9.224,11,9,11.225,9,11.5v9C9,20.775,9.224,21,9.5,21h13c0.276,0,0.5-0.225,0.5-0.5v-9
		c0-0.275-0.224-0.5-0.5-0.5H9.5z"/>
	<polygon fill="#FFFFFF" points="14,13 14,19 19,16 	"/>
</g>
<g id="fave_icon_-_selected">
</g>
</svg>
