<?xml version="1.0" encoding="utf-8"?>
<!-- Generator: Adobe Illustrator 18.1.0, SVG Export Plug-In . SVG Version: 6.00 Build 0)  -->
<!DOCTYPE svg PUBLIC "-//W3C//DTD SVG 1.1//EN" "http://www.w3.org/Graphics/SVG/1.1/DTD/svg11.dtd">
<svg version="1.1" id="Layer_1" xmlns="http://www.w3.org/2000/svg" xmlns:xlink="http://www.w3.org/1999/xlink" x="0px" y="0px"
	 viewBox="0 0 32 32" enable-background="new 0 0 32 32" xml:space="preserve">
<g id="Ppt">
</g>
<g id="Small_Folder">
</g>
<g>
	<g>
		<g>
			<path fill="#DF3324" d="M7,31.5c-1.93,0-3.5-1.57-3.5-3.5V4c0-1.93,1.57-3.5,3.5-3.5h15.207L28.5,6.793V28
				c0,1.93-1.57,3.5-3.5,3.5H7z"/>
			<path fill="#FFFFFF" d="M22,1l6,6v21c0,1.657-1.343,3-3,3H7c-1.657,0-3-1.343-3-3V4c0-1.657,1.343-3,3-3H22 M22.414,0H22H7
				C4.794,0,3,1.794,3,4v24c0,2.206,1.794,4,4,4h18c2.206,0,4-1.794,4-4V7V6.586l-0.293-0.293l-6-6L22.414,0L22.414,0z"/>
		</g>
	</g>
	<polygon fill-rule="evenodd" clip-rule="evenodd" fill="#BA150D" points="22,1 22,7 28,7 	"/>
	<path fill="#BA150D" d="M22.535,14.463C21.47,11.697,18.832,10,16.035,10c-0.832,0-1.678,0.15-2.5,0.467
		c-3.589,1.382-5.378,5.411-3.996,9c1.065,2.766,3.703,4.463,6.5,4.463c0.832,0,1.677-0.15,2.5-0.467
		C22.127,22.081,23.917,18.052,22.535,14.463z M19.489,21.819c-0.332,0.237-0.693,0.441-1.081,0.609l-0.837-2.175l2.342-0.902
		C19.934,20.316,19.788,21.168,19.489,21.819z M14.767,21.333l2.337-0.9l0.834,2.165c-0.397,0.134-0.804,0.22-1.216,0.268
		C16.059,22.586,15.389,22.056,14.767,21.333z M15.778,22.91c-1.02-0.046-1.99-0.355-2.837-0.874l1.332-0.513
		C14.75,22.097,15.259,22.561,15.778,22.91z M10.385,18.843c-0.323-0.968-0.391-1.982-0.206-2.966l1.525-0.587
		c0.086,0.89,0.298,1.838,0.644,2.798L10.385,18.843z M12.572,12.138c0.341-0.244,0.705-0.455,1.097-0.625l0.833,2.164l-2.341,0.901
		C12.14,13.627,12.282,12.785,12.572,12.138z M14.969,13.497l-0.833-2.165c0.398-0.134,0.804-0.22,1.217-0.268
		c0.662,0.281,1.332,0.811,1.954,1.533L14.969,13.497z M17.647,13.002c0.539,0.708,1.021,1.561,1.409,2.503l-2.885,1.111
		l-1.021-2.652L17.647,13.002z M16.297,11.02c1.02,0.046,1.99,0.355,2.836,0.873l-1.332,0.513
		C17.324,11.833,16.815,11.368,16.297,11.02z M12.19,15.103l2.492-0.96l1.021,2.652l-2.89,1.113
		C12.469,16.947,12.262,15.99,12.19,15.103z M15.883,17.262l1.041,2.704l-2.498,0.962c-0.549-0.721-1.04-1.591-1.431-2.554
		L15.883,17.262z M17.391,19.787l-1.041-2.704l2.892-1.113c0.356,0.978,0.569,1.954,0.642,2.858L17.391,19.787z M19.708,15.79
		l1.963-0.756c0.344,1.003,0.404,2.039,0.22,3.02l-1.521,0.586C20.283,17.734,20.065,16.767,19.708,15.79z M21.482,14.571
		l-1.96,0.755c-0.388-0.945-0.867-1.788-1.401-2.506l1.514-0.583C20.427,12.839,21.069,13.634,21.482,14.571z M11.845,12.734
		c-0.149,0.603-0.208,1.292-0.178,2.033l-1.347,0.519c0.074-0.25,0.159-0.499,0.266-0.742C10.893,13.856,11.326,13.25,11.845,12.734
		z M10.568,19.308l1.961-0.755c0.392,0.966,0.88,1.826,1.424,2.557l-1.515,0.583C11.632,21.08,10.98,20.267,10.568,19.308z
		 M20.226,21.204c0.15-0.606,0.211-1.297,0.18-2.042l1.343-0.517C21.466,19.606,20.947,20.49,20.226,21.204z"/>
	<path fill="#FFFFFF" d="M22.535,13.462c-1.065-2.766-3.703-4.464-6.5-4.463c-0.832,0-1.678,0.15-2.5,0.467
		c-3.589,1.382-5.378,5.411-3.996,9c1.065,2.766,3.703,4.463,6.5,4.463c0.832,0,1.677-0.15,2.5-0.467
		C22.127,21.08,23.917,17.05,22.535,13.462z M19.489,20.817c-0.332,0.237-0.693,0.441-1.081,0.609l-0.837-2.175l2.342-0.902
		C19.934,19.314,19.788,20.166,19.489,20.817z M14.767,20.331l2.337-0.9l0.834,2.165c-0.397,0.134-0.804,0.22-1.216,0.268
		C16.059,21.584,15.389,21.054,14.767,20.331z M15.778,21.908c-1.02-0.046-1.99-0.355-2.837-0.874l1.332-0.513
		C14.75,21.095,15.259,21.56,15.778,21.908z M10.385,17.841c-0.323-0.968-0.391-1.982-0.206-2.966l1.525-0.587
		c0.086,0.89,0.298,1.838,0.644,2.798L10.385,17.841z M12.572,11.136c0.341-0.244,0.705-0.455,1.097-0.625l0.833,2.164l-2.341,0.901
		C12.14,12.626,12.282,11.784,12.572,11.136z M14.969,12.495l-0.833-2.165c0.398-0.134,0.804-0.22,1.217-0.268
		c0.662,0.281,1.332,0.811,1.954,1.533L14.969,12.495z M17.647,12c0.539,0.708,1.021,1.561,1.409,2.503l-2.885,1.111l-1.021-2.652
		L17.647,12z M16.297,10.018c1.02,0.046,1.99,0.355,2.836,0.873l-1.332,0.513C17.324,10.831,16.815,10.367,16.297,10.018z
		 M12.19,14.101l2.492-0.96l1.021,2.652l-2.89,1.113C12.469,15.945,12.262,14.988,12.19,14.101z M15.883,16.26l1.041,2.704
		l-2.498,0.962c-0.549-0.721-1.04-1.591-1.431-2.554L15.883,16.26z M17.391,18.785l-1.041-2.704l2.892-1.113
		c0.356,0.978,0.569,1.954,0.642,2.858L17.391,18.785z M19.708,14.788l1.963-0.756c0.344,1.003,0.404,2.039,0.22,3.02l-1.521,0.586
		C20.283,16.732,20.065,15.765,19.708,14.788z M21.482,13.569l-1.96,0.755c-0.388-0.945-0.867-1.788-1.401-2.506l1.514-0.583
		C20.427,11.837,21.069,12.632,21.482,13.569z M11.845,11.732c-0.149,0.603-0.208,1.292-0.178,2.033l-1.347,0.519
		c0.074-0.25,0.159-0.499,0.266-0.742C10.893,12.854,11.326,12.248,11.845,11.732z M10.568,18.307l1.961-0.755
		c0.392,0.966,0.88,1.826,1.424,2.557l-1.515,0.583C11.632,20.078,10.98,19.266,10.568,18.307z M20.226,20.202
		c0.15-0.606,0.211-1.297,0.18-2.042l1.343-0.517C21.466,18.604,20.947,19.488,20.226,20.202z"/>
</g>
<g id="fave_icon_-_selected">
</g>
</svg>
